<svg width="41" height="42" viewBox="0 0 41 42" fill="none" xmlns="http://www.w3.org/2000/svg">
<g id="logos:facebook" clip-path="url(#clip0_1_1583)">
<path id="Vector" d="M41 21C41 9.40209 31.8218 0 20.5 0C9.17823 0 0 9.40193 0 21C0 31.4816 7.49659 40.1696 17.2969 41.7449V27.0703H12.0918V21H17.2969V16.3734C17.2969 11.1103 20.3575 8.20312 25.0399 8.20312C27.2829 8.20312 29.6289 8.61328 29.6289 8.61328V13.7812H27.044C24.4972 13.7812 23.7031 15.4001 23.7031 17.0609V21H29.3887L28.4798 27.0703H23.7031V41.7449C33.5034 40.1696 41 31.4818 41 21Z" fill="#1877F2"/>
<path id="Vector_2" d="M28.4798 27.0703L29.3887 21H23.7031V17.0609C23.7031 15.3999 24.4973 13.7812 27.044 13.7812H29.6289V8.61328C29.6289 8.61328 27.2829 8.20312 25.0399 8.20312C20.3575 8.20312 17.2969 11.1103 17.2969 16.3734V21H12.0918V27.0703H17.2969V41.7449C18.3565 41.915 19.4274 42.0003 20.5 42C21.5726 42.0003 22.6435 41.915 23.7031 41.7449V27.0703H28.4798Z" fill="white"/>
</g>
<defs>
<clipPath id="clip0_1_1583">
<rect width="41" height="42" fill="white"/>
</clipPath>
</defs>
</svg>
